<?xml version="1.0" encoding="UTF-8"?><svg xmlns="http://www.w3.org/2000/svg" xmlns:xlink="http://www.w3.org/1999/xlink" height="113.3" preserveAspectRatio="xMidYMid meet" version="1.0" viewBox="188.7 272.3 239.2 113.3" width="239.2" zoomAndPan="magnify"><g fill="#ffbc48" id="change1_1"><path d="M 308.332031 381.476562 C 279.351562 381.476562 255.863281 357.980469 255.863281 329 C 255.863281 300.027344 279.351562 276.539062 308.332031 276.539062 C 337.300781 276.539062 360.800781 300.027344 360.800781 329 C 360.800781 357.980469 337.300781 381.476562 308.332031 381.476562 Z M 308.332031 272.339844 C 242.265625 272.339844 188.714844 335.296875 188.714844 335.296875 C 188.714844 335.296875 242.265625 385.664062 308.332031 385.664062 C 374.390625 385.664062 427.949219 335.296875 427.949219 335.296875 C 427.949219 335.296875 374.390625 272.339844 308.332031 272.339844" fill="inherit"/><path d="M 334.894531 329 C 334.894531 343.671875 323 355.558594 308.332031 355.558594 C 293.664062 355.558594 281.769531 343.671875 281.769531 329 C 281.769531 314.339844 293.664062 302.445312 308.332031 302.445312 C 323 302.445312 334.894531 314.339844 334.894531 329" fill="inherit"/></g></svg>