<svg xmlns="http://www.w3.org/2000/svg" width="471" height="233" viewBox="0 0 471 233">
  <g id="get-in-touch" transform="translate(149 -12862)">
    <path id="Rectangle_2675" data-name="Rectangle 2675" d="M10,0H471a0,0,0,0,1,0,0V233a0,0,0,0,1,0,0H0a0,0,0,0,1,0,0V10A10,10,0,0,1,10,0Z" transform="translate(-149 12862)" fill="#dde8fd"/>
    <text id="Get_In_Touch_" data-name="Get In Touch!" transform="translate(87 12918)" fill="#0096d8" font-size="25" font-family="Poppins-Bold, Poppins" font-weight="700" letter-spacing="0.02em"><tspan x="-87.375" y="0">Get In Touch!</tspan></text>
    <path id="Path_6416" data-name="Path 6416" d="M613.477,293.375H350.04c-9.354,0-16.948,5.889-16.948,13.167v76.649c0,7.28,7.594,13.172,16.948,13.172H373.2L359.625,418.7l46.9-22.339H613.477c9.354,0,16.932-5.892,16.932-13.172V306.542C630.408,299.264,613.477,293.375,613.477,293.375Z" transform="translate(-326.039 12656.965)" fill="#1c9ad4"/>
    <text id="If_you_have_any_problem_regarding_any_product_or_shipment_then_get_in_touch_and_we_will_get_back_to_you_soon." data-name="If you have any problem regarding any 
product or shipment, then get in touch 
and we will get back to you soon." transform="translate(23 12982)" fill="#fff" font-size="13" font-family="Poppins-Medium, Poppins" font-weight="500" letter-spacing="0.02em"><tspan x="0" y="0">If you have any problem regarding any </tspan><tspan x="0" y="24">product or shipment, then get in touch </tspan><tspan x="0" y="48">and we will get back to you soon.</tspan></text>
    <g id="Group_6979" data-name="Group 6979" transform="translate(-306.822 12662.859)">
      <path id="Path_6667" data-name="Path 6667" d="M212.1,432.108c-5.6,0-11.193.039-16.79-.02a34.764,34.764,0,0,1-6.239-.6,11.171,11.171,0,0,1-8.268-14.422q2.238-7.264,4.76-14.441a19.433,19.433,0,0,1,10.983-11.85,117.858,117.858,0,0,1,17.226-6.19,29.6,29.6,0,0,1,6.386-.44c2.01-.066,4.022-.015,6.033-.031.422,0,.978.086,1.122-.441.15-.547-.377-.707-.764-.9-6.066-3.012-10.424-7.781-13.928-13.454a56.368,56.368,0,0,1-5.158-11.553,1.857,1.857,0,0,0-1.919-1.455c-.918.009-1.837.021-2.754-.016-1.829-.072-3.379-.832-3.764-2.665-.406-1.928-1.512-2.1-3.115-2.064a3.811,3.811,0,0,1-3.98-4.311c.039-.655,0-1.3-.013-1.948a58.465,58.465,0,0,1,.122-8.247c.128-.991.056-2.007.091-3.012a3.58,3.58,0,0,1,2.252-3.53,2.075,2.075,0,0,0,1.3-1.81,55.026,55.026,0,0,1,6.361-18.449c.342-.61.693-1.217,1.082-1.8a2.724,2.724,0,0,0,.563-2.88c-.469-1.058.418-1.821.995-2.545a41.4,41.4,0,0,1,10.822-9.619,44.508,44.508,0,0,1,18.091-6.163,49.082,49.082,0,0,1,25.771,3.444,40.734,40.734,0,0,1,16.525,12.976,1.983,1.983,0,0,1,.362,2.4,1.241,1.241,0,0,0,.118,1.449,52.573,52.573,0,0,1,6.4,14.022c.628,2.129,1.076,4.316,1.493,6.5.235,1.227.556,2.214,1.868,2.724a2.95,2.95,0,0,1,1.757,2.6,57.61,57.61,0,0,1,.329,12.857c-.064.562-.027,1.135-.042,1.7a3.741,3.741,0,0,1-3.668,3.669c-.524.015-1.05,0-1.574.021a1.55,1.55,0,0,0-1.556,1.322c-.567,2.193-1.949,3.474-4.23,3.309-2.707-.195-4.117.56-4.942,3.39a40.842,40.842,0,0,1-6.64,12.854c-3.2,4.31-6.929,8.09-11.942,10.35-.363.164-.775.37-.677.844.107.51.6.418.979.428,2.357.066,4.723.17,7.07.155a30.451,30.451,0,0,1,11.258,2.123c3.745,1.442,7.565,2.673,11.231,4.344a19.958,19.958,0,0,1,11.244,12.594c1.459,4.533,3.078,9.017,4.477,13.568,2.207,7.18-2.218,14.576-10.77,14.955-12.539.556-25.084.115-37.625.24-1.261.013-2.522-.182-3.786-.252a1.329,1.329,0,0,1-1.369-1.138c-.779-3-1.639-5.984-2.4-8.991a3.566,3.566,0,0,1,1.21-3.42q2.054-2.116,4.2-4.144c.8-.761,1-1.344.063-2.237-2.593-2.474-5.111-5.029-7.614-7.6-.789-.81-1.371-.823-2.169,0q-3.89,3.993-7.88,7.887c-.648.635-.678.994.036,1.643,1.58,1.436,3.08,2.966,4.548,4.519a3.671,3.671,0,0,1,1.011,3.825c-.809,2.722-1.5,5.48-2.161,8.243-.251,1.048-.8,1.361-1.827,1.442-5.543.437-11.094.161-16.641.245-1.312.02-2.623,0-3.935,0ZM263,301.984a7.694,7.694,0,0,0,.555.714c3.546,3.638,5.3,7.845,4.2,12.991-.081.376-.329.814.09,1.281a4.557,4.557,0,0,0,.443-.554c.7-1.265,1.518-1.359,2.425-.2a8.093,8.093,0,0,1,1.055,1.8,16.5,16.5,0,0,1,1.247,6c.038,1.261.6,1.65,1.839,1.531a8.244,8.244,0,0,1,3.871.286c.826.323,1.058.06.84-.763a50.749,50.749,0,0,0-6.4-15.007c-.239-.364-.486-.832-.976-.782-1.785.182-2.627-1.084-3.61-2.206a22.105,22.105,0,0,0-5.574-5.095,2.854,2.854,0,0,0-.938-.9,38.877,38.877,0,0,0-8.472-4.381c-5.726-2.259-11.748-2.092-17.686-1.91a32.132,32.132,0,0,0-15.508,4.761A35.361,35.361,0,0,0,211,307.643c-.673.826-1.386,1.657-2.56,1.609a1.645,1.645,0,0,0-1.563.94,45.548,45.548,0,0,0-3.972,7.667,49.461,49.461,0,0,0-2.381,7.209c-.1.4-.289,1.109.428.867,1.6-.537,3.209-.257,4.811-.347.838-.048,1.135-.546,1.233-1.26.119-.866.187-1.738.325-2.6a14.807,14.807,0,0,1,4.67-9c1.507-1.353,3.186-2.159,5.25-1.245.371.164.717.147.871-.27.8-2.171,2.761-2.64,4.661-3.165a41.228,41.228,0,0,1,9.424-1.07c3.5-.142,6.977.346,10.472.243a39.618,39.618,0,0,1,4.305-.087,17.716,17.716,0,0,0,6.475-.618c2.083-.611,2.674-1.39,2.756-3.518.014-.351-.032-.749.38-.888.455-.154.726.175.972.494a4.5,4.5,0,0,1,1,2.782c.005.9.429,1.093,1.16.579a5.273,5.273,0,0,0,2.316-2.909C262.186,302.51,262.337,302.036,263,301.984ZM240.2,364.436a22.157,22.157,0,0,1,4.376.231,2.916,2.916,0,0,1,2.3,2.417,9.786,9.786,0,0,1-.018,3.782,2.885,2.885,0,0,1-3.056,2.5c-2.314.025-4.631-.039-6.944.03a3.488,3.488,0,0,1-3.05-1.449,2.106,2.106,0,0,0-1.636-.936,28.232,28.232,0,0,1-11.911-3.275c-.292-.155-.687-.5-.946-.207-.357.4.15.7.37.976,3.5,4.462,7.5,8.208,13.032,10.12a22.785,22.785,0,0,0,15.025-.021,24.98,24.98,0,0,0,10.746-7.459c2.853-3.19,5.225-6.69,5.971-11.028a45.633,45.633,0,0,0-.985-20.739c-.989-3.394-2.546-6.51-5.552-8.67a2.018,2.018,0,0,0-2.616-.1,23.415,23.415,0,0,1-9.487,3.571,47.021,47.021,0,0,1-22.249-1.8c-1.677-.549-1.726-.57-1.768,1.232a28.361,28.361,0,0,1-7.24,18.488,2.568,2.568,0,0,0-.577,1.793c-.074,2.715,1.64,4.411,3.378,6.081a23.428,23.428,0,0,0,14.184,6.679,2.361,2.361,0,0,0,2.321-.779,4.144,4.144,0,0,1,3.381-1.436C238.171,364.438,239.089,364.436,240.2,364.436Zm-4.7,32.229a1.364,1.364,0,0,1,1.168.775c.866,1.313,1.77,2.6,2.591,3.943.538.877.929,1.039,1.518.04.731-1.241,1.593-2.406,2.326-3.646a1.794,1.794,0,0,1,2.291-.919c4.653,1.189,9.321,2.321,13.988,3.454.394.1.907.423,1.21-.029.275-.41-.108-.823-.327-1.191-2.461-4.126-4.942-8.24-7.382-12.378-.581-.985-1.109-1.188-2.032-.359-2.988,2.682-6.1,5.227-9.013,7.994-1.724,1.636-1.943,1.67-3.615-.027-2.735-2.775-5.9-5.064-8.67-7.793-1.255-1.235-1.461-1.149-2.424.346-2.579,4.005-4.974,8.119-7.352,12.244-.211.366-.663.759-.383,1.168s.826.119,1.22.025c3.186-.761,6.362-1.557,9.543-2.34Q232.834,397.313,235.506,396.664ZM222.264,424.5c.549,0,.767,0,.985,0,.862-.008,1.846.2,1.858-1.177.015-1.823-.294-2.15-1.9-2.228-1.451-.072-2.864.274-4.3.275-4.451,0-8.9.014-13.354-.012-.91-.005-1.819-.222-2.729-.225-1.575-.005-1.115,1.23-1.18,2.108-.072.976.458,1.406,1.373,1.216,2.031-.42,4.081-.121,6.113-.153A104.72,104.72,0,0,1,222.264,424.5Z" transform="translate(0 0)" fill="#1c9ad4"/>
    </g>
  </g>
</svg>
